<?xml version="1.0" encoding="utf-8"?>
<!-- Generator: Adobe Illustrator 20.1.0, SVG Export Plug-In . SVG Version: 6.00 Build 0)  -->
<svg version="1.1" id="Layer_1" xmlns="http://www.w3.org/2000/svg" xmlns:xlink="http://www.w3.org/1999/xlink" x="0px" y="0px"
	 viewBox="0 0 32 40" style="enable-background:new 0 0 32 40;" xml:space="preserve">
<style type="text/css">
	.st0{fill:#FFFFFF;}
</style>
<g>
	<path class="st0" d="M-17.6-8.1c-8.8,0-16-7.2-16-16s7.2-16,16-16s16,7.2,16,16S-8.8-8.1-17.6-8.1z M-17.6-38.1
		c-7.7,0-14,6.3-14,14s6.3,14,14,14s14-6.3,14-14S-9.9-38.1-17.6-38.1z"/>
</g>
<g>
	<path class="st0" d="M-23.4-20l3.7-4.4l-3.2-3.9c-0.3-0.4-0.5-0.7-0.7-1c-0.1-0.3-0.2-0.5-0.2-0.8c0-0.3,0.1-0.5,0.4-0.7
		s0.6-0.3,1-0.3c0.5,0,0.8,0.1,1.1,0.3s0.6,0.6,1.1,1.2l2.5,3.3l2.7-3.3c0.2-0.3,0.4-0.5,0.6-0.7s0.3-0.4,0.5-0.5
		c0.1-0.1,0.3-0.2,0.5-0.3C-13.2-31-13-31-12.7-31c0.4,0,0.8,0.1,1,0.3s0.4,0.4,0.4,0.7c0,0.4-0.3,1-0.9,1.7l-3.3,3.9l3.5,4.4
		c0.3,0.4,0.6,0.7,0.7,1c0.1,0.3,0.2,0.5,0.2,0.7c0,0.2-0.1,0.4-0.2,0.6s-0.3,0.3-0.5,0.4c-0.2,0.1-0.5,0.2-0.8,0.2
		c-0.3,0-0.6-0.1-0.8-0.2c-0.2-0.1-0.4-0.2-0.5-0.4s-0.4-0.5-0.8-0.9l-2.9-3.7l-3.1,3.8c-0.2,0.3-0.4,0.5-0.5,0.6
		c-0.1,0.1-0.2,0.2-0.4,0.4c-0.1,0.1-0.3,0.2-0.5,0.3c-0.2,0.1-0.4,0.1-0.7,0.1c-0.4,0-0.8-0.1-1-0.3c-0.3-0.2-0.4-0.5-0.4-0.9
		C-24.3-18.8-24-19.3-23.4-20z"/>
</g>
</svg>
