<?xml version="1.0" encoding="utf-8"?>
<!-- Generator: Adobe Illustrator 20.1.0, SVG Export Plug-In . SVG Version: 6.00 Build 0)  -->
<svg version="1.1" id="Layer_1" xmlns="http://www.w3.org/2000/svg" xmlns:xlink="http://www.w3.org/1999/xlink" x="0px" y="0px"
	 viewBox="0 0 20 20" style="enable-background:new 0 0 20 20;" xml:space="preserve">
<style type="text/css">
	.st0{fill:#FFFFFF;}
</style>
<path class="st0" d="M3.9,0.2L8,4.3c0,0,0,1.2-1.2,2.5C5.5,8,4.3,8,4.3,8L0.2,3.9C-0.4,6.2,0.4,9,2.1,10.7c2.6,2.6,5.8,0.3,6.5,1
	c3.6,3.6,6.5,7.3,6.7,7.5c1.1,1.1,2.9,1.1,3.9,0.1c1.1-1.1,1-2.8-0.1-3.9c-0.1-0.1-4-3.2-7.6-6.8c-0.7-0.7,1.8-3.8-0.9-6.5
	C9,0.4,6.2-0.4,3.9,0.2z M18.2,17c0,0.7-0.5,1.2-1.2,1.2s-1.2-0.5-1.2-1.2s0.5-1.2,1.2-1.2S18.2,16.3,18.2,17z"/>
</svg>
