<?xml version="1.0" encoding="utf-8"?>
<!-- Generator: Adobe Illustrator 20.1.0, SVG Export Plug-In . SVG Version: 6.00 Build 0)  -->
<svg version="1.1" id="Layer_1" xmlns="http://www.w3.org/2000/svg" xmlns:xlink="http://www.w3.org/1999/xlink" x="0px" y="0px"
	 viewBox="0 0 71.9 90.2" style="enable-background:new 0 0 71.9 90.2;" xml:space="preserve">
<style type="text/css">
	.st0{fill:#FFFFFF;}
</style>
<path class="st0" d="M0,4.6c0,15.2,0,30.4,0,45.6C0,57.1,2.3,63,7,68c8.2,8.8,17.9,16.2,28.9,22.2c11-5.3,20.8-12.8,29.3-22.3
	c4.4-5,6.6-10.7,6.6-17.3c0-15.3,0-30.6,0-45.9C47.9-1.5,24-1.6,0,4.6z M58.4,30.5L33.5,55.3c-0.6,0.6-1.4,0.9-2.3,0.9
	c-0.8,0-1.6-0.3-2.2-0.9L17.4,44.2c-1.3-1.2-1.3-3.3-0.1-4.5c1.2-1.3,3.3-1.3,4.5-0.1l9.4,9l22.6-22.6c1.2-1.2,3.3-1.2,4.5,0
	C59.6,27.2,59.6,29.2,58.4,30.5z"/>
</svg>
