<?xml version="1.0" encoding="utf-8"?>
<!-- Generator: Adobe Illustrator 20.1.0, SVG Export Plug-In . SVG Version: 6.00 Build 0)  -->
<svg version="1.1" id="Layer_1" xmlns="http://www.w3.org/2000/svg" xmlns:xlink="http://www.w3.org/1999/xlink" x="0px" y="0px"
	 viewBox="0 0 67.8 80" style="enable-background:new 0 0 67.8 80;" xml:space="preserve">
<style type="text/css">
	.st0{fill:#FFFFFF;}
</style>
<path class="st0" d="M67.7,54.9C66.6,67,52.7,79.3,40.8,80c3.1-6,5.5-12.8,3.1-16.8c-1.6-2.6-12.4-12.3-9.6-22.6
	C7.7,56.5,23.3,73.4,26.7,80C0.2,76.7-8.1,48.4,8.7,36.1C34.2,17.4,29.3,2.5,28.4,0C54.9,12,47.9,26.2,48,34.8l6.7-6.7
	C61.2,34.3,68.7,43.8,67.7,54.9z M26.7,80L26.7,80L26.7,80L26.7,80z"/>
</svg>
