<?xml version="1.0" encoding="utf-8"?>
<!-- Generator: Adobe Illustrator 20.1.0, SVG Export Plug-In . SVG Version: 6.00 Build 0)  -->
<svg version="1.1" id="Layer_1" xmlns="http://www.w3.org/2000/svg" xmlns:xlink="http://www.w3.org/1999/xlink" x="0px" y="0px"
	 viewBox="0 0 32 32" style="enable-background:new 0 0 32 32;" xml:space="preserve">
<style type="text/css">
	.st0{fill:#FFFFFF;}
</style>
<g>
	<path class="st0" d="M16,32C7.2,32,0,24.8,0,16S7.2,0,16,0s16,7.2,16,16S24.8,32,16,32z M16,2C8.3,2,2,8.3,2,16s6.3,14,14,14
		s14-6.3,14-14S23.7,2,16,2z"/>
</g>
<path class="st0" d="M25,20.5L17.6,7.7c-0.3-0.5-0.9-0.9-1.6-0.9S14.7,7,14.4,7.7L7,20.5c-0.3,0.5-0.3,1.3,0,1.8
	c0.3,0.5,0.9,0.9,1.6,0.9h14.8c0.7,0,1.3-0.3,1.6-0.9C25.3,21.8,25.3,21.1,25,20.5z M16,20.2c-0.5,0-0.9-0.4-0.9-0.9
	c0-0.5,0.4-0.9,0.9-0.9s0.9,0.4,0.9,0.9C16.9,19.8,16.5,20.2,16,20.2z M16.9,16.7c0,0.5-0.4,0.9-0.9,0.9c-0.5,0-0.9-0.4-0.9-0.9
	v-3.9c0-0.5,0.4-0.9,0.9-0.9c0.5,0,0.9,0.4,0.9,0.9V16.7z"/>
</svg>
