<?xml version="1.0" encoding="utf-8"?>
<!-- Generator: Adobe Illustrator 20.1.0, SVG Export Plug-In . SVG Version: 6.00 Build 0)  -->
<svg version="1.1" id="Layer_1" xmlns="http://www.w3.org/2000/svg" xmlns:xlink="http://www.w3.org/1999/xlink" x="0px" y="0px"
	 viewBox="0 0 36 46" style="enable-background:new 0 0 36 46;" xml:space="preserve">
<style type="text/css">
	.st0{fill:#FFFFFF;}
</style>
<title>Png 48px Solid - 70 Basic Icons</title>
<g>
	<path class="st0" d="M18,0C8.1,0,0,7.8,0,17.4c0,3.8,1.3,7.4,3.6,10.4l13.6,17.8c0.3,0.4,1,0.5,1.4,0.2c0.1-0.1,0.1-0.1,0.2-0.2
		l13.6-17.8c2.3-3,3.6-6.6,3.6-10.4C36,7.8,27.9,0,18,0z M16.6,24.2c-3.8-0.8-6.3-4.4-5.5-8.2c0.8-3.8,4.4-6.3,8.2-5.5
		c2.8,0.6,5,2.7,5.5,5.5c0.7,3.8-1.8,7.5-5.5,8.2C18.4,24.4,17.5,24.4,16.6,24.2z"/>
</g>
</svg>
