<?xml version="1.0" encoding="utf-8"?>
<!-- Generator: Adobe Illustrator 20.1.0, SVG Export Plug-In . SVG Version: 6.00 Build 0)  -->
<svg version="1.1" id="Layer_1" xmlns="http://www.w3.org/2000/svg" xmlns:xlink="http://www.w3.org/1999/xlink" x="0px" y="0px"
	 viewBox="0 0 30.6 30.6" style="enable-background:new 0 0 30.6 30.6;" xml:space="preserve">
<style type="text/css">
	.st0{fill:#FFFFFF;}
</style>
<title>Png 48px Solid - 70 Basic Icons</title>
<g>
	<path class="st0" d="M15.3,30.6c8.4,0,15.3-6.9,15.3-15.3C30.6,6.9,23.8,0,15.3,0C6.9,0,0,6.9,0,15.3C0,23.8,6.9,30.6,15.3,30.6z
		 M15.3,3.1c6.8,0,12.3,5.5,12.3,12.3c0,6.8-5.5,12.3-12.3,12.3S3.1,22.1,3.1,15.3S8.6,3.1,15.3,3.1z"/>
	<path class="st0" d="M13.8,15.6c0,0,0,0.1,0,0.1c0,0.1,0,0.1,0,0.2c0,0,0,0.1,0.1,0.1c0,0,0,0.1,0.1,0.1c0.1,0.1,0.1,0.1,0.2,0.2
		c0,0,0,0,0,0l6.1,6.1c0.6,0.6,1.6,0.6,2.2,0c0.6-0.6,0.6-1.6,0-2.2l-5.7-5.7V8.5c0-0.8-0.7-1.5-1.5-1.5s-1.5,0.7-1.5,1.5v6.8
		C13.8,15.4,13.8,15.5,13.8,15.6z"/>
</g>
</svg>
