<?xml version="1.0" encoding="utf-8"?>
<!-- Generator: Adobe Illustrator 20.1.0, SVG Export Plug-In . SVG Version: 6.00 Build 0)  -->
<svg version="1.1" id="Layer_1" xmlns="http://www.w3.org/2000/svg" xmlns:xlink="http://www.w3.org/1999/xlink" x="0px" y="0px"
	 viewBox="0 0 80.8 80" style="enable-background:new 0 0 80.8 80;" xml:space="preserve">
<style type="text/css">
	.st0{fill:#FFFFFF;}
	.st1{fill:none;}
</style>
<path class="st0" d="M71,64.4c-0.7,0-1.5-0.2-2.1-0.7c-1.8-1.2-2.2-3.7-1.1-5.5c0.8-1.3,1.6-2.6,2.2-4c0.9-2,3.2-2.8,5.1-1.9
	c1.9,1,2.7,3.4,1.8,5.3c-0.8,1.7-1.7,3.4-2.7,5C73.4,63.8,72.2,64.4,71,64.4z M76.6,49.1c-0.2,0-0.4,0-0.5,0
	c-2.1-0.3-3.6-2.3-3.3-4.5c0.2-1.5,0.3-3,0.3-4.6l0-0.1c0-2.2,1.7-4,3.8-4c2.1,0,3.8,1.8,3.8,4l0,0.1c0,1.9-0.1,3.9-0.4,5.7
	C80.1,47.7,78.5,49.1,76.6,49.1z M75.2,32.7c-1.6,0-3.1-1.1-3.7-2.8c-0.5-1.5-1-2.9-1.6-4.3c-0.9-2-0.1-4.4,1.8-5.3s4.2-0.1,5.1,1.8
	c0.8,1.7,1.5,3.5,2.1,5.3c0.7,2.1-0.5,4.4-2.5,5C76,32.6,75.6,32.7,75.2,32.7z M67.2,18.7c-1,0-2-0.4-2.8-1.2
	c-1-1.1-2.1-2.1-3.3-3.1c-1.7-1.4-1.9-3.9-0.6-5.6s3.7-2,5.4-0.6c1.4,1.2,2.8,2.5,4,3.8c1.5,1.6,1.4,4.1-0.1,5.7
	C69.1,18.3,68.1,18.7,67.2,18.7z M54.1,9.6c-0.5,0-0.9-0.1-1.4-0.3c-1.4-0.5-2.8-1-4.2-1.3c-2.1-0.5-3.4-2.6-2.9-4.8s2.5-3.5,4.6-3
	c1.8,0.4,3.6,1,5.3,1.6c2,0.8,3,3.1,2.2,5.2C57.1,8.6,55.6,9.6,54.1,9.6z"/>
<path class="st1" d="M8,40c0,17.6,14.4,32,32,32c9.3,0,17.6-4,23.5-10.3l-0.3-0.3l0.3,0.3C68.8,56,72,48.4,72,40
	C72,23,58.7,9.1,42,8.1l-0.5,6.8L42,8.1C41.3,8,40.7,8,40,8C22.4,8,8,22.4,8,40z M44,22.2v16.1l14.8,14.8c1.6,1.6,1.6,4.1,0,5.7
	c-1.6,1.6-4.1,1.6-5.7,0l-16-16c0,0,0,0,0-0.1c-0.2-0.2-0.3-0.4-0.5-0.6c-0.1-0.1-0.1-0.2-0.2-0.3c-0.1-0.1-0.1-0.2-0.2-0.4
	c-0.1-0.1-0.1-0.3-0.1-0.4c0-0.1-0.1-0.2-0.1-0.3C36,40.5,36,40.3,36,40V22.2c0-2.2,1.8-4,4-4S44,20,44,22.2z"/>
<path class="st0" d="M40,72C22.4,72,8,57.6,8,40C8,22.4,22.4,8,40,8c0.7,0,1.3,0,2,0.1l0.6-8C41.7,0,40.9,0,40,0C17.9,0,0,17.9,0,40
	c0,22.1,17.9,40,40,40c11.4,0,21.6-4.8,28.9-12.4l-5.4-5.9C57.6,68,49.3,72,40,72z"/>
<path class="st0" d="M36,22.2V40c0,0.3,0,0.5,0.1,0.8c0,0.1,0.1,0.2,0.1,0.3c0,0.1,0.1,0.3,0.1,0.4c0.1,0.1,0.1,0.2,0.2,0.4
	c0.1,0.1,0.1,0.2,0.2,0.3c0.1,0.2,0.3,0.4,0.5,0.6c0,0,0,0,0,0.1l16,16c1.6,1.6,4.1,1.6,5.7,0c1.6-1.6,1.6-4.1,0-5.7L44,38.3V22.2
	c0-2.2-1.8-4-4-4S36,20,36,22.2z"/>
</svg>
