<?xml version="1.0" encoding="utf-8"?>
<!-- Generator: Adobe Illustrator 20.1.0, SVG Export Plug-In . SVG Version: 6.00 Build 0)  -->
<svg version="1.1" id="Layer_1" xmlns="http://www.w3.org/2000/svg" xmlns:xlink="http://www.w3.org/1999/xlink" x="0px" y="0px"
	 viewBox="0 0 416 531.6" style="enable-background:new 0 0 416 531.6;" xml:space="preserve">
<style type="text/css">
	.st0{fill:#FFFFFF;}
</style>
<path class="st0" d="M180.1,430.6c-11.6,0-14.9,9-15.2,14.2h29.7C193,435.5,189,430.6,180.1,430.6z"/>
<path class="st0" d="M380.2,400.4v4.4h3.8c1.5,0,2.4-0.7,2.4-2.2c0-1.5-0.8-2.2-2.4-2.2H380.2z"/>
<path class="st0" d="M347.4,430.6c-12.3,0-16,10.7-16,21.4c0,10.6,3.7,21.3,16,21.3c12.5,0,16.2-10.7,16.2-21.3
	C363.5,441.2,359.8,430.6,347.4,430.6z"/>
<path class="st0" d="M382.8,394.9c-5.9,0-10.7,4.8-10.8,10.7c0,6,4.8,10.7,10.8,10.7c2.9,0,5.5-1.1,7.4-3h-3.4
	c-0.4-1-0.4-2.5-0.6-3.8c-0.2-1.6-0.9-2.4-2.6-2.4h-3.5v6.2h-3.5v-15.7h8.5c2.8,0,4.6,1.9,4.6,4.3c0,1.8-0.8,3.2-2.5,3.9v0
	c1.7,0.4,2.2,2.1,2.3,3.7c0.1,1,0,2.8,0.7,3.7c2-2,3.3-4.7,3.3-7.7C393.5,399.7,388.7,394.9,382.8,394.9z"/>
<path class="st0" d="M392.9,0H23.1C10.3,0,0,10.4,0,23.1v485.4c0,12.8,10.3,23.1,23.1,23.1h369.8c12.8,0,23.1-10.3,23.1-23.1V23.1
	C416,10.4,405.7,0,392.9,0z M136.5,485.3h-18.2v-37.8c0-8.9-0.8-16.3-11.2-16.3c-10.3,0-12.2,8.5-12.2,16.9v37.2H76.7v-37.4
	c0-7.7,0.5-16.6-11-16.6c-3.6,0-12.3,2.3-12.3,15.3v38.7H35.1v-66.7h17.2v9h0.3c4.7-6.8,11.7-10.8,20.3-10.8
	c8.3,0,15.8,3.1,19.4,11.1c3.9-5.8,10.8-11.1,20-11.1c14.1,0,24.3,6.6,24.3,23.9V485.3z M212.9,456.3H165
	c0.5,11.6,6.2,16.9,16.3,16.9c7.3,0,13.2-4.5,14.4-8.7h16c-5.1,15.7-16,22.4-31.1,22.4c-20.9,0-33.9-14.4-33.9-35.1
	c0-20,13.7-35.2,33.9-35.2C203.2,416.8,214.2,435.8,212.9,456.3z M259.6,430.8h-13.4v33c0,6.2,1.5,7.7,7.7,7.7
	c1.9,0,3.7-0.1,5.7-0.5v14.3c-3.1,0.5-7.1,0.7-10.7,0.7c-11.2,0-20.9-2.6-20.9-15.9v-39.4h-11v-12.2h11v-20h18.2v20h13.4V430.8z
	 M310.7,434.4c-1.7-0.4-4.4-0.7-6.6-0.7c-13.4,0-18,9.6-18,21.4v30.1h-18.2v-66.7h17.3v12.4h0.3c3.3-8.4,12.3-14.2,21.2-14.2
	c1.3,0,2.8,0.3,4,0.7V434.4z M242.7,381.4h-69.3L104,138.7v242.7H34.6V34.7h104L208,265.8l69.3-231.2h104v346.7H312V138.7
	L242.7,381.4z M347.4,487.1c-20.8,0-34.3-13.9-34.3-35.1c0-21.3,13.5-35.2,34.3-35.2c20.9,0,34.4,13.9,34.4,35.2
	C381.8,473.2,368.3,487.1,347.4,487.1z M382.8,418c-6.8,0-12.3-5.5-12.3-12.3c0-6.8,5.5-12.3,12.3-12.3c6.8,0,12.3,5.5,12.3,12.3
	C395.1,412.4,389.6,418,382.8,418z"/>
</svg>
