<?xml version="1.0" encoding="utf-8"?>
<!-- Generator: Adobe Illustrator 20.1.0, SVG Export Plug-In . SVG Version: 6.00 Build 0)  -->
<svg version="1.1" id="Layer_1" xmlns="http://www.w3.org/2000/svg" xmlns:xlink="http://www.w3.org/1999/xlink" x="0px" y="0px"
	 viewBox="0 0 32 32" style="enable-background:new 0 0 32 32;" xml:space="preserve">
<style type="text/css">
	.st0{fill:#FFFFFF;}
</style>
<g>
	<path class="st0" d="M16-8C7.2-8,0-15.2,0-24s7.2-16,16-16s16,7.2,16,16S24.8-8,16-8z M16-38C8.3-38,2-31.7,2-24s6.3,14,14,14
		s14-6.3,14-14S23.7-38,16-38z"/>
</g>
<path class="st0" d="M8-17.9c0.1,0,0.3,0.1,0.4,0.1s0.3,0,0.4,0c0.4,0,0.8-0.1,1.2-0.1s0.7-0.2,1.1-0.3c0.3-0.1,0.7-0.3,1-0.5
	s0.6-0.4,0.9-0.6c-0.3,0-0.7-0.1-1.1-0.2c-0.3-0.1-0.6-0.3-0.9-0.5c-0.3-0.2-0.5-0.5-0.7-0.7c-0.2-0.3-0.3-0.6-0.5-0.9
	c0.1,0,0.2,0.1,0.3,0.1c0.1,0,0.2,0,0.3,0c0.2,0,0.3,0,0.5-0.1c0.2,0,0.3-0.1,0.5-0.1c-0.4-0.1-0.7-0.2-1.1-0.5s-0.6-0.5-0.8-0.7
	c-0.2-0.3-0.4-0.6-0.6-1c-0.2-0.4-0.2-0.7-0.2-1.1l0,0l0,0c0.2,0.1,0.5,0.2,0.7,0.3c0.3,0.1,0.5,0.1,0.8,0.1
	c-0.5-0.3-0.8-0.7-1.1-1.2c-0.3-0.5-0.5-1.1-0.5-1.6c0-0.3,0.1-0.6,0.1-0.9c0.1-0.3,0.2-0.6,0.3-0.8c0.4,0.5,0.9,1,1.4,1.4
	c0.5,0.4,1,0.8,1.6,1.1c0.6,0.3,1.2,0.6,1.9,0.7s1.4,0.3,2,0.3c0-0.1-0.1-0.2-0.1-0.4c0-0.1,0-0.3,0-0.4c0-0.5,0.1-0.9,0.3-1.3
	c0.2-0.4,0.4-0.8,0.7-1.1c0.3-0.3,0.7-0.6,1.1-0.7c0.4-0.2,0.8-0.3,1.3-0.3c0.5,0,1,0.1,1.4,0.3c0.5,0.2,0.8,0.5,1.1,0.8
	c0.4-0.1,0.7-0.2,1.1-0.3c0.3-0.1,0.7-0.3,1-0.5c-0.1,0.4-0.3,0.7-0.6,1.1c-0.2,0.3-0.6,0.6-0.9,0.8c0.3,0,0.6-0.1,1-0.2
	c0.3-0.1,0.6-0.2,1-0.3c-0.3,0.3-0.5,0.6-0.8,1c-0.3,0.3-0.6,0.6-0.9,0.8c0,0.1,0,0.1,0,0.2c0,0.1,0,0.2,0,0.2
	c0,1.1-0.2,2.3-0.6,3.4c-0.4,1.1-1,2.1-1.9,3.1c-0.8,1-1.8,1.7-3,2.3s-2.5,0.8-4.1,0.8c-0.5,0-1-0.1-1.4-0.1
	c-0.5-0.1-0.9-0.2-1.4-0.3c-0.5-0.1-0.8-0.3-1.2-0.5S8.4-17.7,8-17.9z"/>
</svg>
