<?xml version="1.0" encoding="utf-8"?>
<!-- Generator: Adobe Illustrator 20.1.0, SVG Export Plug-In . SVG Version: 6.00 Build 0)  -->
<svg version="1.1" id="Layer_1" xmlns="http://www.w3.org/2000/svg" xmlns:xlink="http://www.w3.org/1999/xlink" x="0px" y="0px"
	 viewBox="0 0 32 32" style="enable-background:new 0 0 32 32;" xml:space="preserve">
<style type="text/css">
	.st0{fill:#FFFFFF;}
</style>
<g>
	<path class="st0" d="M16-8C7.2-8,0-15.2,0-24s7.2-16,16-16s16,7.2,16,16S24.8-8,16-8z M16-38C8.3-38,2-31.7,2-24s6.3,14,14,14
		s14-6.3,14-14S23.7-38,16-38z"/>
</g>
<path class="st0" d="M12-23.5v-2.7h2.1v-0.7c0-0.5,0-1,0-1.6c0-0.5,0.1-0.9,0.2-1.3c0.2-0.4,0.4-0.8,0.7-1.1
	c0.3-0.3,0.7-0.6,1.2-0.8s1.1-0.3,1.8-0.3c0.6,0,1,0,1.4,0.1l0.5,0.1l-0.1,2.6l-0.5,0c-0.4,0-0.8,0-1.2,0c-0.5,0-0.8,0.1-0.9,0.3
	s-0.2,0.5-0.2,0.9c0,0,0,0.1,0,0.1v0c0,0.1,0,0.3,0,0.6c0,0.3,0,0.7,0,1.2h3l-0.1,2.7h-2.9v7.6h-2.8v-7.6H12z"/>
</svg>
